<svg id="Layer_1" data-name="Layer 1" xmlns="http://www.w3.org/2000/svg" viewBox="0 0 19.46 21.93"><defs><style>.cls-1{fill:#b0b0b0;}</style></defs><title>bag-black</title><path id="Path_3" data-name="Path 3" class="cls-1" d="M19,4.87h-4A5.31,5.31,0,0,0,9.77,0H9.69A5.31,5.31,0,0,0,4.41,4.87h-4A.44.44,0,0,0,0,5.31H0V21.49a.44.44,0,0,0,.44.44H19a.44.44,0,0,0,.44-.44h0V5.31A.44.44,0,0,0,19,4.87ZM9.7.88h.07a4.43,4.43,0,0,1,4.4,4H5.29A4.43,4.43,0,0,1,9.7.88Zm8.89,20.17H.88V5.74H4.39V8H4.24a.44.44,0,0,0,0,.88h1.2a.44.44,0,0,0,0-.88h-.2V5.74H14.2V8H14a.44.44,0,0,0,0,.88h1.2a.44.44,0,0,0,0-.88h-.16V5.74H18.6Z" transform="translate(0)"/></svg>