<svg id="Layer_1" data-name="Layer 1" xmlns="http://www.w3.org/2000/svg" viewBox="0 0 23.88 21.93"><defs><style>.cls-1{fill:#b0b0b0;}</style></defs><title>heart-black</title><path id="Path_1" data-name="Path 1" class="cls-1" d="M11.94,21.93,2.09,12.08A7.3,7.3,0,0,1,0,6.81,6.9,6.9,0,0,1,11.94,2.19,6.9,6.9,0,0,1,23.87,6.81a7.3,7.3,0,0,1-2.09,5.27ZM.88,6.82h.21a6.3,6.3,0,0,0,1.77,4.49l9.08,9.08L21,11.31a6.29,6.29,0,0,0,1.77-4.46h0a5.81,5.81,0,0,0-5.85-5.76h0a6,6,0,0,0-4.58,2.26l-.42.51-.42-.51A5.94,5.94,0,0,0,6.95,1.08,5.8,5.8,0,0,0,1.09,6.81Z" transform="translate(0 0)"/></svg>