<svg id="Group_40" data-name="Group 40" xmlns="http://www.w3.org/2000/svg" viewBox="0 0 37.92 35.47"><defs><style>.cls-1{fill:#b3b3b3;}</style></defs><title>heart-2-black</title><path id="Path_8" data-name="Path 8" class="cls-1" d="M34.4,2.44A10.69,10.69,0,0,0,26.06.2a11.06,11.06,0,0,0-7,4.18A9.71,9.71,0,0,0,13,.33C9.59-.47,5.82.23,3.59,2.09-2,6.71-1,16.44,5.92,24.73l.26.31.1.12h0c4,4.62,8.22,9.05,12.37,10.25l.25.07.25-.07c4.15-1.2,8.4-5.63,12.37-10.25h0l.1-.12.26-.31c3.42-4.11,5.47-8.44,5.93-12.52S37.08,4.66,34.4,2.44ZM30.5,23.57l-.24.28-.11.13h0l-.17.2h0l-.16.19,0,0-.15.17,0,0-.15.17,0,0-.15.17,0,0-.14.16,0,0-.14.16,0,0-.13.15,0,0-.13.15,0,.05-.13.14,0,.05-.13.14-.05.05-.12.14-.05.06-.12.13-.06.06-.12.13-.06.06-.12.13L27.5,27l-.12.13-.06.07-.12.12-.06.07-.12.12-.06.07-.12.12-.06.07-.12.12-.06.07-.12.12-.06.07-.11.12-.07.07-.11.11-.07.07-.11.11-.07.07-.11.11-.07.07-.11.11-.07.07-.11.11-.07.07-.11.11-.07.07-.11.1L25,29.5l-.11.1-.07.07-.11.1-.07.07-.11.1-.07.07-.11.1-.07.06-.11.1-.07.06-.11.1-.07.06-.11.1-.07.06-.11.1-.07.06-.12.1-.07.05-.12.1-.06,0-.12.1-.06,0-.13.1-.05,0-.15.11,0,0-.55.4,0,0-.14.1-.06,0-.12.08-.07,0-.11.07-.07,0-.11.07-.07,0-.1.07-.08,0-.1.06-.08,0-.1.06-.08,0-.1.05-.08,0-.1.05-.08,0-.1,0-.08,0-.1,0-.08,0-.09,0-.08,0-.09,0-.08,0-.09,0-.08,0-.09,0-.08,0-.09,0-.08,0-.09,0-.08,0-.05,0-.05,0-.08,0-.09,0-.08,0-.09,0-.08,0-.09,0-.08,0-.09,0-.08,0-.1,0-.08,0-.1,0-.08,0-.1,0-.08,0-.1-.05-.08,0-.1-.06-.07,0-.1-.06-.07,0-.11-.06-.07,0-.11-.07-.07,0-.12-.07-.06,0-.12-.08-.06,0-.13-.09,0,0-.15-.1,0,0-.18-.13h0l-.55-.4h0L15,31.4l0,0-.15-.12,0,0-.14-.11-.05,0L14.47,31l-.06,0-.12-.1-.06-.05-.12-.1L14,30.61l-.12-.1-.07-.06-.12-.1-.07-.06-.11-.1-.07-.06-.11-.1L13.31,30l-.11-.1-.07-.07-.11-.1-.07-.07-.11-.1-.08-.07-.1-.1-.08-.07-.1-.1-.08-.08-.1-.1-.08-.08-.1-.1L12,28.75l-.1-.1-.08-.08-.1-.1-.08-.08-.1-.1-.08-.08-.1-.1L11.32,28l-.1-.1-.08-.08-.1-.1L11,27.66l-.1-.1-.08-.09-.1-.1-.08-.09-.09-.1-.08-.09-.09-.1-.09-.09-.09-.1-.09-.1L10,26.6l-.09-.1-.09-.1-.09-.1-.09-.1-.09-.1L9.44,26l-.09-.1-.08-.09-.09-.1-.08-.09L9,25.52l-.08-.09-.09-.1-.08-.09-.1-.11L8.58,25l-.09-.1-.08-.09-.09-.1-.07-.09-.09-.11-.08-.09L8,24.36l-.08-.1-.08-.1L7.64,24h0l-.11-.12-.24-.28C1.06,16.08,0,7.44,4.73,3.47c1.82-1.51,5-2.07,7.81-1.39a7.71,7.71,0,0,1,5.52,4.35v0l0,.06,0,0,0,0,0,0,0,0,0,0,0,0,0,0,0,0,.05,0h0l.06,0h0l0,0,.12,0h.27a.89.89,0,0,0,.29-.05l.05,0h0l.05,0,0,0,0,0,0,0,0,0,0,0,0,0,0,0,0,0,0-.06v0A9.57,9.57,0,0,1,26.31,2a8.86,8.86,0,0,1,6.92,1.83C37.93,7.72,36.78,16,30.5,23.57Z" transform="translate(0 0)"/><path id="Path_9" data-name="Path 9" class="cls-1" d="M11.6,21.56c-1.29-1.69-5.38-7.79-4.75-12A4.38,4.38,0,0,1,9.26,6.15a.9.9,0,1,0-.87-1.59c-2.63,1.43-3.78,4-3.32,7.3a22.25,22.25,0,0,0,3,7.7c.68,1.16,1.31,2.07,1.72,2.63.91,1.26,1,1.29,1.33,1.35a.91.91,0,0,0,1-.38,1.1,1.1,0,0,0-.21-1.33A.91.91,0,0,0,11.6,21.56Z" transform="translate(0 0)"/></svg>