<svg xmlns="http://www.w3.org/2000/svg" width="52.408" height="52.4" viewBox="0 0 52.408 52.4">
  <path id="Path_64" data-name="Path 64" d="M281.466,370.229H256.458a13.711,13.711,0,0,0-13.7,13.7v25.005a13.711,13.711,0,0,0,13.7,13.7l25.008-.005a13.711,13.711,0,0,0,13.7-13.7v-25A13.711,13.711,0,0,0,281.466,370.229Zm-12.5,38.977a12.778,12.778,0,1,1,0-25.556h0a12.777,12.777,0,1,1,0,25.555Zm12.992-28.577a2.274,2.274,0,1,1,2.274,2.274A2.277,2.277,0,0,1,281.959,380.629Z" transform="translate(-242.758 -370.229)" fill="#252525"/>
</svg>
