<svg id="Group_39" data-name="Group 39" xmlns="http://www.w3.org/2000/svg" viewBox="0 0 46.29 46.29"><defs><style>.cls-1{fill:#b3b3b3;}</style></defs><title>star-black</title><g id="Group_38" data-name="Group 38"><g id="Group_37" data-name="Group 37"><g id="Group_36" data-name="Group 36"><path id="Path_7" data-name="Path 7" class="cls-1" d="M37.92,46.29a1,1,0,0,1-.52-.15l-14-8.7a.48.48,0,0,0-.51,0l-14,8.7A1,1,0,0,1,7.43,45L13,28.33a.48.48,0,0,0-.19-.56L.44,19.54A1,1,0,0,1,0,18.42a1,1,0,0,1,.95-.7H16.17a.48.48,0,0,0,.46-.33L22.21.68a1,1,0,0,1,1.88,0l5.57,16.71a.48.48,0,0,0,.46.33H45.3a1,1,0,0,1,.95.7,1,1,0,0,1-.4,1.11L33.49,27.78a.49.49,0,0,0-.19.56L38.85,45a1,1,0,0,1-.94,1.31ZM23.15,35.11a1,1,0,0,1,.52.15l11.29,7a.48.48,0,0,0,.26.07.48.48,0,0,0,.46-.64L31.07,27.89a1,1,0,0,1,.39-1.14l9.23-6.16a.48.48,0,0,0-.27-.89H29.05a1,1,0,0,1-.94-.68L23.61,5.51a.48.48,0,0,0-.92,0L18.18,19a1,1,0,0,1-.94.68H5.87a.48.48,0,0,0-.27.89l9.23,6.16a1,1,0,0,1,.39,1.14L10.61,41.73a.48.48,0,0,0,.31.61l.15,0a.48.48,0,0,0,.26-.07l11.29-7a1,1,0,0,1,.52-.15Z" transform="translate(0 0)"/></g></g></g></svg>