<svg id="Layer_1" data-name="Layer 1" xmlns="http://www.w3.org/2000/svg" viewBox="0 0 52.79 33.58"><defs><style>.cls-1,.cls-2{fill:#b3b3b3;}.cls-1{stroke:#b3b3b3;stroke-width:0.2px;}</style></defs><title>truck-black</title><g id="Group_47" data-name="Group 47"><g id="Group_41" data-name="Group 41"><path id="Path_10" data-name="Path 10" class="cls-1" d="M.1,29V25.15l1.44-.21c0-.88,0-1.74,0-2.6,0-.15-.2-.32-.34-.43-.57-.46-.55-.6.13-1l.24-.17c0-.87,0-1.82,0-2.76a1.26,1.26,0,0,1,.87-1.42c1-.42,1.9-1,2.87-1.4a2.53,2.53,0,0,0,1.27-1.26C8.71,9.62,10.89,5.32,13,1A1.35,1.35,0,0,1,14.42.1Q33,.13,51.57.12h.88c.25.65.33,27.63.09,28.91-2,.11-4.09,0-6.17.07-.69,2.76-2.31,4.35-5.22,4.37A4.86,4.86,0,0,1,38,32.15a5.4,5.4,0,0,1-1.59-3H17.53c-.09.26-.18.48-.25.72a5,5,0,0,1-9.59.06c-.26-.83-.25-.84-1.13-.84H1.08C.78,29.06.48,29,.1,29ZM11.6,6h9.79a2.7,2.7,0,0,1,.75,0,.8.8,0,0,1,.47.39c0,.11-.1.38-.23.46a.8.8,0,0,0-.39.77c0,2.21,0,4.43,0,6.64a1,1,0,0,0,.27.65c.21.2.52.37.32.66a1.26,1.26,0,0,1-.71.31,3,3,0,0,1-.67,0c-4.21,0-8.42.07-12.63,0a8.9,8.9,0,0,0-5.28,1.28l-.07,0a1.07,1.07,0,0,0-.78,1.21c0,1.91,0,3.81,0,5.72,0,.24,0,.49.08.86,1,0,1.88,0,2.79,0a1.38,1.38,0,0,0,1.32-.67,6.91,6.91,0,0,1,5.74-3,6.8,6.8,0,0,1,5.7,2.73,2.23,2.23,0,0,0,2,1q6.91-.07,13.81,0a1.9,1.9,0,0,0,1.73-.87,7.18,7.18,0,0,1,11.7.4,1,1,0,0,0,.92.45h2.86a2.86,2.86,0,0,0,.53-.1c.22-1.2.14-23.3-.1-23.93H33.25C27.18,1,21.12,1,15.06,1a1.32,1.32,0,0,0-1.43.86C13.13,3,12.54,4.06,12,5.16c-.12.24-.22.49-.38.86Zm4.9,1.09c-.3,0-.49-.07-.68-.07-1.35,0-2.69,0-4,0a1.05,1.05,0,0,0-1.1.7C9.62,9.89,8.53,12,7.45,14.19c-.1.19-.15.4-.28.75.49,0,.87,0,1.25,0a.83.83,0,0,0,.92-.56c.17-.41.4-.8.6-1.2a1.42,1.42,0,0,1,1.88-.73.56.56,0,0,1,.31.42c0,.14-.21.29-.37.38s-.29,0-.41,0-.45.14-.55.3a10.75,10.75,0,0,0-.58,1.19,28.22,28.22,0,0,0,6.28,0Zm-8,21.47a4,4,0,1,0,4-4h0a3.92,3.92,0,0,0-4,3.89s0,.09,0,.14Zm36.88,0a4,4,0,1,0-4.05,4h0a4.06,4.06,0,0,0,4-4ZM34.46,26.12H19.34l.42,1.93H33.07a1.62,1.62,0,0,0,.58,0c.21-.09.47-.24.53-.42a12,12,0,0,0,.29-1.49ZM20.82,14.9a46,46,0,0,0,0-7.83,26.8,26.8,0,0,0-3.24,0,46.46,46.46,0,0,0,.08,7.82ZM17.52,28h1.11c0-.12.08-.17.07-.22a6.32,6.32,0,0,0-5.58-5.42A6.24,6.24,0,0,0,6.39,27.1a3.7,3.7,0,0,0,0,.86c1,.16,1,.16,1.3-.73a5,5,0,0,1,9.6.08c.06.21.15.42.24.68ZM36.3,28c1-2.89,2.45-4.23,4.59-4.33,3.1-.15,4.76,1.53,5.52,4.39L47.47,28c.25-1.39-1.14-3.85-3-4.83a6.2,6.2,0,0,0-6.9.41c-1.48,1-2.59,3.19-2.31,4.42ZM1,26.11V28H5.23l.37-1.88Zm47.24,0a12.11,12.11,0,0,0,.26,1.42c.06.2.29.49.45.5.91,0,1.82,0,2.75,0V26.1Z" transform="translate(0 0)"/><path id="Path_11" data-name="Path 11" class="cls-1" d="M14.42,28.69a2,2,0,0,1-3.9.16s0-.08,0-.11a2.12,2.12,0,0,1,1.9-2A2,2,0,0,1,14.42,28.69Zm-1.92,1a1,1,0,0,0,1-1,1,1,0,0,0-1-1h0a.91.91,0,0,0-.94,1,1,1,0,0,0,1,.95Z" transform="translate(0 0)"/><path id="Path_12" data-name="Path 12" class="cls-1" d="M41.39,30.68a1.92,1.92,0,1,1,2-2A2,2,0,0,1,41.39,30.68Zm1-2a1,1,0,0,0-2,0s0,0,0,.07a1,1,0,0,0,1,.91,1,1,0,0,0,1-1v0Z" transform="translate(0 0)"/></g><g id="Group_42" data-name="Group 42"><path id="Path_13" data-name="Path 13" class="cls-2" d="M37.48,6.85H33l-2.91,3.79,7,7.53.06.06h.14a.2.2,0,0,0,.14-.06l6.81-7.53L41.32,6.85Zm3.67.36,2.5,3.23H39.58L37.51,7.21Zm-2,3.23h-4l2-3.1Zm-6-3.23h3.63l-2.07,3.23h-4Zm-2.46,3.58h4l2.11,6.59Zm6.5,6.7-2.15-6.7h4.15Zm2.37-6.69h4l-6,6.59Z" transform="translate(0 0)"/><rect id="Rectangle_15" data-name="Rectangle 15" class="cls-2" x="37" y="3.72" width="0.35" height="1.34"/><path id="Path_14" data-name="Path 14" class="cls-2" d="M29.33,6.86l-.25.25.93.95.25-.25Z" transform="translate(0 0)"/><path id="Path_15" data-name="Path 15" class="cls-2" d="M32.83,5.61l-.48-1.25L32,4.5l.48,1.25Z" transform="translate(0 0)"/><path id="Path_16" data-name="Path 16" class="cls-2" d="M45.33,7.05,44.39,8l.25.25.93-.95Z" transform="translate(0 0)"/><path id="Path_17" data-name="Path 17" class="cls-2" d="M42.64,4.49l-.33-.13-.48,1.25.33.13Z" transform="translate(0 0)"/><path id="Path_18" data-name="Path 18" class="cls-2" d="M31.83,10.12l1.9-2.35-.27-.23-1.9,2.35Z" transform="translate(0 0)"/><path id="Path_19" data-name="Path 19" class="cls-2" d="M35.74,15.22l-.59-.68-.27.24.59.68Z" transform="translate(0 0)"/><path id="Path_20" data-name="Path 20" class="cls-2" d="M31.88,11.29l2.6,3,.27-.24-2.6-3Z" transform="translate(0 0)"/></g></g></svg>